<?xml version="1.0" encoding="UTF-8" standalone="no"?>
<svg width="124px" height="34px" viewBox="0 0 124 34" version="1.1" xmlns="http://www.w3.org/2000/svg" xmlns:xlink="http://www.w3.org/1999/xlink">
    <!-- Generator: Sketch 39.1 (31720) - http://www.bohemiancoding.com/sketch -->
    <title>Page 1</title>
    <desc>Created with Sketch.</desc>
    <defs></defs>
    <g id="Page-1" stroke="none" stroke-width="1" fill="none" fill-rule="evenodd">
        <g id="Desktop-HD-Copy-2" transform="translate(-227.000000, -53.000000)" fill="#FEFEFE">
            <g id="Group-8" transform="translate(227.000000, 53.000000)">
                <g id="Page-1" transform="translate(0.000000, 4.000000)">
                    <path d="M1.98599375,9.63259375 C1.98599375,11.1885313 2.11843125,12.4795938 2.54824375,13.7706563 C3.70686875,17.3123438 6.91786875,19.5629687 11.6181813,19.5629687 C16.2534938,19.5629687 19.5303062,17.4114688 20.7555562,13.9355938 C21.2186812,12.5787188 21.2844937,11.2543438 21.2844937,9.63259375 L21.2844937,5.36209375 L1.98599375,5.36209375 L1.98599375,9.63259375 Z M1.92018125,0.00040625 L1.92018125,3.04565625 L21.3511188,3.04565625 L21.3511188,0.00040625 L23.2710563,0.00040625 L23.2710563,9.83165625 C23.2710563,11.8174063 23.1386187,13.2409063 22.6746812,14.7960313 C21.2511813,19.1989688 17.2455562,21.9793438 11.6181813,21.9793438 C5.89249375,21.9793438 1.95268125,19.1323438 0.56249375,14.4986563 C0.09936875,13.0418438 0.00024375,11.5525313 0.00024375,9.83165625 L0.00024375,0.00040625 L1.92018125,0.00040625 Z" id="Fill-1"></path>
                    <path d="M39.4226625,18.3763125 C40.690975,18.3763125 41.743975,18.26825 42.7961625,17.91725 C45.6837875,16.973125 47.519225,14.35525 47.519225,10.5226875 C47.519225,6.74375 45.7650375,4.0714375 42.9310375,3.072875 C41.8244125,2.6950625 40.7454125,2.6414375 39.4226625,2.6414375 L35.9411,2.6414375 L35.9411,18.3763125 L39.4226625,18.3763125 Z M31.5690375,18.4299375 L34.0520375,18.4299375 L34.0520375,2.587 L31.5690375,2.587 L31.5690375,1.0213125 L39.58435,1.0213125 C41.2036625,1.0213125 42.364725,1.129375 43.6330375,1.5071875 C47.2226625,2.66825 49.4895375,5.9345 49.4895375,10.5226875 C49.4895375,15.1913125 47.168225,18.403125 43.3901,19.5365625 C42.202225,19.914375 40.98835,19.995625 39.58435,19.995625 L31.5690375,19.995625 L31.5690375,18.4299375 Z" id="Fill-3"></path>
                    <path d="M52.4324938,18.484375 L54.5376813,18.484375 L54.5376813,8.5255625 C54.5376813,8.120125 54.3215563,7.931625 53.9437438,7.931625 L52.1083063,7.931625 L52.1083063,6.4195625 L54.6725563,6.4195625 C55.8068063,6.4195625 56.3186813,6.878625 56.3186813,7.957625 L56.3186813,8.87575 C56.3186813,9.442875 56.2650563,9.901125 56.2650563,9.901125 L56.3186813,9.901125 C56.9938688,7.850375 58.5051188,6.2846875 60.6103063,6.2846875 C60.9889313,6.2846875 61.3667438,6.3659375 61.3667438,6.3659375 L61.3667438,8.17375 C61.3667438,8.17375 61.0149313,8.120125 60.6647438,8.120125 C57.6146188,8.120125 56.3731188,11.5480625 56.3731188,14.2471875 L56.3731188,18.484375 L58.4783063,18.484375 L58.4783063,19.995625 L52.4324938,19.995625 L52.4324938,18.484375 Z" id="Fill-5"></path>
                    <path d="M67.6548438,18.8078312 C70.3807813,18.8078312 71.9196563,16.0818937 71.9196563,13.7069562 L71.9196563,13.0593937 L71.1364062,13.0593937 C70.0305938,13.0593937 64.7404063,12.9513312 64.7404063,16.0818937 C64.7404063,17.4850812 65.7657813,18.8078312 67.6548438,18.8078312 M71.0283438,11.6830187 L71.9196563,11.6830187 L71.9196563,11.1158937 C71.9196563,8.57926875 70.5424688,7.68795625 68.6534063,7.68795625 C66.3597188,7.68795625 64.7127813,9.01070625 64.7127813,9.01070625 L63.8490938,7.63433125 C63.8490938,7.63433125 65.6845313,6.09626875 68.7614688,6.09626875 C72.0537188,6.09626875 73.7550938,7.85045625 73.7550938,11.1971437 L73.7550938,17.8905187 C73.7550938,18.2951437 73.9704062,18.4844562 74.3482188,18.4844562 L75.8326562,18.4844562 L75.8326562,19.9957062 L73.6194062,19.9957062 C72.4591563,19.9957062 72.0000938,19.4822062 72.0000938,18.5112687 L72.0000938,18.2683312 C72.0000938,17.6207687 72.0813438,17.2153312 72.0813438,17.2153312 L72.0277188,17.2153312 C72.0277188,17.2153312 70.8666563,20.3198937 67.3850938,20.3198937 C65.1718438,20.3198937 62.8505313,19.0507687 62.8505313,16.2712062 C62.8505313,11.8715187 68.7346563,11.6830187 71.0283438,11.6830187" id="Fill-7"></path>
                    <path d="M78.4659688,18.484375 L80.7596563,18.484375 L80.7596563,7.931625 L78.3310938,7.931625 L78.3310938,6.4195625 L80.7596563,6.4195625 L80.7596563,5.718375 C80.7596563,1.42675 83.7829688,0.8864375 85.1861563,0.8864375 C85.8613438,0.8864375 86.2935938,0.9676875 86.2935938,0.9676875 L86.2935938,2.5601875 C86.2935938,2.5601875 85.9417813,2.47975 85.3754688,2.47975 C84.4581563,2.47975 82.5950938,2.803125 82.5950938,5.69075 L82.5950938,6.4195625 L86.0498438,6.4195625 L86.0498438,7.931625 L82.5950938,7.931625 L82.5950938,18.484375 L85.2942188,18.484375 L85.2942188,19.995625 L78.4659688,19.995625 L78.4659688,18.484375 Z" id="Fill-9"></path>
                    <path d="M91.046475,7.93138125 L88.6171,7.93138125 L88.6171,6.41931875 L91.0732875,6.41931875 L91.0732875,2.66881875 L92.8819125,2.66881875 L92.8819125,6.41931875 L96.3090375,6.41931875 L96.3090375,7.93138125 L92.8819125,7.93138125 L92.8819125,14.8945063 C92.8819125,18.0795063 94.90585,18.5109438 95.9580375,18.5109438 C96.3366625,18.5109438 96.5787875,18.4573188 96.5787875,18.4573188 L96.5787875,20.0490063 C96.5787875,20.0490063 96.2554125,20.1034438 95.79635,20.1034438 C94.2306625,20.1034438 91.046475,19.5907563 91.046475,15.0561938 L91.046475,7.93138125 Z" id="Fill-11"></path>
                    <path d="M100.858794,7.93138125 L98.4294188,7.93138125 L98.4294188,6.41931875 L100.885606,6.41931875 L100.885606,2.66881875 L102.693419,2.66881875 L102.693419,6.41931875 L106.121356,6.41931875 L106.121356,7.93138125 L102.693419,7.93138125 L102.693419,14.8945063 C102.693419,18.0795063 104.718169,18.5109438 105.770356,18.5109438 C106.148169,18.5109438 106.391106,18.4573188 106.391106,18.4573188 L106.391106,20.0490063 C106.391106,20.0490063 106.067731,20.1034438 105.608669,20.1034438 C104.042981,20.1034438 100.858794,19.5907563 100.858794,15.0561938 L100.858794,7.93138125 Z" id="Fill-13"></path>
                    <path d="M111.92675,24.0442313 C113.141438,24.0442313 114.005125,23.0724812 114.517813,21.8846063 L115.27425,20.0767938 L110.4155,7.93154375 L108.6345,7.93154375 L108.6345,6.41948125 L114.3285,6.41948125 L114.3285,7.93154375 L112.359,7.93154375 L115.921813,17.1883563 C116.0835,17.7018563 116.137938,18.1601063 116.137938,18.1601063 L116.218375,18.1601063 C116.218375,18.1601063 116.299625,17.7018563 116.488125,17.1883563 L120.050938,7.93154375 L118.080625,7.93154375 L118.080625,6.41948125 L123.695,6.41948125 L123.695,7.93154375 L121.913188,7.93154375 L116.137938,22.5061688 C115.354688,24.4488563 113.87025,25.6635438 111.981188,25.6635438 C110.442313,25.6635438 109.416938,24.8534813 109.416938,24.8534813 L110.118938,23.3966688 C110.118938,23.3966688 110.901375,24.0442313 111.92675,24.0442313" id="Fill-15"></path>
                </g>
            </g>
        </g>
    </g>
</svg>