<?xml version="1.0" encoding="UTF-8" standalone="no"?>
<svg width="100px" height="34px" viewBox="0 0 100 34" version="1.1" xmlns="http://www.w3.org/2000/svg" xmlns:xlink="http://www.w3.org/1999/xlink">
    <!-- Generator: Sketch 3.8.3 (29802) - http://www.bohemiancoding.com/sketch -->
    <title>Page 1</title>
    <desc>Created with Sketch.</desc>
    <defs></defs>
    <g id="Page-1" stroke="none" stroke-width="1" fill="none" fill-rule="evenodd">
        <g id="Desktop-HD-Copy-2" transform="translate(-29.000000, -22.000000)" fill="#FFFFFF">
            <g id="Page-1" transform="translate(29.000000, 22.000000)">
                <path d="M30.5607494,8.9240962 C27.6806481,8.92280506 25.3015089,9.54126076 24.8784456,10.3934127 L24.8117367,9.27829873 L19.961357,9.27829873 L19.961357,25.903438 L25.0122937,25.903438 C25.0122937,25.903438 25.095357,19.3138937 25.095357,18.8499443 C25.095357,15.8372861 25.7727747,13.5239949 30.5607494,13.5239949 L30.5607494,8.9240962 Z" id="Fill-1"></path>
                <path d="M40.7675494,19.2185215 C40.7675494,20.2660658 40.4718785,21.095838 39.8818278,21.7086987 C39.2909165,22.3215595 38.4387646,22.6275595 37.3249418,22.6275595 C37.0572456,22.6275595 36.7783595,22.6000152 36.4891443,22.5444962 C36.1994987,22.4889772 35.9429924,22.3938633 35.7204861,22.2600152 C35.4975494,22.1261671 35.3137772,21.9484203 35.1691696,21.7254835 C35.0237013,21.5029772 34.9518278,21.2357114 34.9518278,20.9232557 C34.9518278,20.4334835 35.1076253,20.0375342 35.4196506,19.7366987 C35.7312456,19.4358633 36.1267646,19.207762 36.6062076,19.0515342 C37.0852203,18.8957367 37.6309418,18.7898633 38.2442329,18.7339139 C38.8566633,18.6783949 39.4639291,18.6504203 40.0656,18.6504203 L40.7675494,18.6504203 L40.7675494,19.2185215 Z M43.6127899,10.8459139 C43.011119,10.1220152 41.6321823,7.60601519 32.7736759,8.92426835 L32.7736759,13.4880152 C33.4975747,13.1540405 36.8119291,12.8011291 37.5922076,12.8011291 C38.4387646,12.8011291 39.1519038,12.9965215 39.7311949,13.3860152 C40.3104861,13.7759392 40.600562,14.3836354 40.600562,15.2078127 L40.600562,15.4750785 C39.3972203,15.4750785 38.1603089,15.5422177 36.8902582,15.6756354 C35.6202076,15.8094835 34.4672203,16.0767494 33.4308658,16.4778633 C32.3949418,16.8789772 31.5479544,17.4470785 30.8907646,18.1825975 C30.2331443,18.9176861 29.9047646,19.8869013 29.9047646,21.090243 C29.9047646,22.0710785 30.0937013,22.8952557 30.4728658,23.5636354 C30.8516,24.2320152 31.3362076,24.7669772 31.9266886,25.1680911 C32.5171696,25.5692051 33.1687646,25.8588506 33.8823342,26.0370278 C34.595043,26.2152051 35.2862329,26.3042937 35.9546127,26.3042937 C36.9569671,26.3042937 37.8874481,26.1144962 38.7451949,25.7361924 C39.6029418,25.3574582 40.2437772,24.8224962 40.6672709,24.1317367 L40.7675494,24.1317367 L40.7675494,25.9031797 L45.3506633,25.9031797 L45.3506633,17.5142177 C45.3506633,15.9988506 45.2112203,14.6896354 44.9327646,13.5865722 C44.6538785,12.4839392 44.2144608,11.570243 43.6127899,10.8459139 L43.6127899,10.8459139 Z" id="Fill-3"></path>
                <path d="M94.1661848,9.2582 L90.8574253,19.5236177 L90.7567165,19.9539975 L86.6164633,9.2582 L80.9931215,9.2582 L80.9634253,9.2582 L77.0826911,9.2582 L77.0826911,4.87994684 L71.7012228,4.87994684 L71.7012228,9.2582 L69.3616785,9.2582 L69.060843,9.2582 L65.4508177,9.2582 L65.4508177,4.87994684 L60.0697797,4.87994684 L60.0697797,9.2582 L58.2307671,9.2582 L57.4294,9.2582 L54.5208937,9.2582 L54.5208937,7.58703544 C54.5208937,7.20830127 54.5544633,6.82956709 54.6211722,6.45083291 C54.687881,6.07209873 54.8101089,5.73209873 54.9887165,5.43126329 C55.1668937,5.13042785 55.4117797,4.89113671 55.7242354,4.71252911 C56.0358304,4.5343519 56.4481342,4.44526329 56.9607165,4.44526329 C57.2284127,4.44526329 57.4956785,4.46764304 57.7629443,4.51197215 C58.0306405,4.55716203 58.2643367,4.61225063 58.4648937,4.67895949 L58.832438,0.334275949 C58.4537038,0.222807595 58.0358051,0.139313924 57.5791722,0.083364557 C57.1221089,0.0282759494 56.6603114,-0.000129113924 56.1920582,-0.000129113924 C54.8101089,-0.000129113924 53.6571215,0.206022785 52.7330962,0.618326582 C51.8077797,1.03063038 51.0726911,1.58754177 50.5269696,2.28949114 C49.9803873,2.99101013 49.5960582,3.80485823 49.3735519,4.72931392 C49.1506152,5.6542 49.0395772,6.62944051 49.0395772,7.6537443 L49.0395772,9.2582 L45.9980835,9.2582 L45.9980835,13.3360481 L49.0395772,13.3360481 L49.0395772,25.9031367 L54.5208937,25.9031367 L54.5208937,13.3360481 L57.4294,13.3360481 L58.2307671,13.3360481 L60.1033494,13.3360481 L60.1033494,20.3731873 C60.1033494,21.2666557 60.2031975,22.0766304 60.4041848,22.802681 C60.6047418,23.5287316 60.9331215,24.1540734 61.3897544,24.6791367 C61.8463873,25.2046304 62.4536532,25.6066051 63.2115519,25.8854911 C63.9685899,26.1643772 64.9046658,26.3042506 66.0193494,26.3042506 C66.5982101,26.3042506 67.1775013,26.2543266 67.7572228,26.1540481 C68.3360835,26.0537696 68.8150962,25.9367063 69.1946911,25.8028582 L69.1275519,21.7921494 C68.9269949,21.8816684 68.6760835,21.9483772 68.3756785,21.9927063 C68.0744127,22.0374658 67.790362,22.0594152 67.5230962,22.0594152 C66.7428177,22.0594152 66.2031215,21.8644532 65.9022861,21.4723772 C65.6014506,21.0807316 65.4508177,20.4936937 65.4508177,19.7112633 L65.4508177,13.3360481 L69.060843,13.3360481 L69.3616785,13.3360481 L71.7347924,13.3360481 L71.7347924,20.3731873 C71.7347924,21.2666557 71.8350709,22.0766304 72.0356278,22.802681 C72.2361848,23.5287316 72.5645646,24.1540734 73.0216278,24.6791367 C73.4782608,25.2046304 74.0855266,25.6066051 74.8434253,25.8854911 C75.6004633,26.1643772 76.5365392,26.3042506 77.6507924,26.3042506 C78.2300835,26.3042506 78.8089443,26.2543266 79.3886658,26.1540481 C79.967957,26.0537696 80.4469696,25.9367063 80.8261342,25.8028582 L80.7594253,21.7921494 C80.5588684,21.8816684 80.307957,21.9483772 80.0071215,21.9927063 C79.7062861,22.0374658 79.4222354,22.0594152 79.1549696,22.0594152 C78.3746911,22.0594152 77.8345646,21.8644532 77.5337291,21.4723772 C77.2328937,21.0807316 77.0826911,20.4936937 77.0826911,19.7112633 L77.0826911,13.3360481 L82.6944127,13.3360481 L87.9162101,25.6358709 L87.3808177,27.0062 C87.1135519,27.7193392 86.7903367,28.2706557 86.4116025,28.6610101 C86.0328684,29.0505038 85.4200076,29.2454658 84.5734506,29.2454658 C84.3061848,29.2454658 84.0105139,29.2174911 83.6877291,29.1619722 C83.3645139,29.1060228 83.0697038,29.033719 82.8020076,28.9450608 L81.769957,33.5570101 C82.1710709,33.6684785 82.6444886,33.7579975 83.1906405,33.8247063 C83.736362,33.8914152 84.2652987,33.9249848 84.7783114,33.9249848 C85.8249949,33.9249848 86.7330962,33.8023266 87.5021848,33.5570101 C88.270843,33.3116937 88.9392228,32.9497443 89.5077544,32.471162 C90.0758557,31.991719 90.5656278,31.4124278 90.978362,30.7328582 C91.3902354,30.0528582 91.7638051,29.2790354 92.0977797,28.4100987 L99.5515266,9.2582 L94.1661848,9.2582 Z" id="Fill-5"></path>
                <path d="M12.5213823,19.5192278 C12.3320152,20.0322405 12.064319,20.4888734 11.7191544,20.8899873 C11.3735595,21.2906709 10.9556608,21.6138861 10.4658886,21.8592025 C9.9752557,22.104519 9.4183443,22.2267468 8.79472405,22.2267468 C8.14786329,22.2267468 7.57976203,22.104519 7.08998987,21.8592025 C6.59978734,21.6138861 6.18748354,21.2906709 5.85307848,20.8899873 C5.5191038,20.4888734 5.26819241,20.0266456 5.10120506,19.5028734 C4.93421772,18.9795316 4.85072405,18.4501646 4.85072405,17.9147722 C4.85072405,17.3802405 4.93421772,16.8568987 5.10120506,16.3443165 C5.26819241,15.8321646 5.5191038,15.3806962 5.85307848,14.9907722 C6.18748354,14.6008481 6.59978734,14.2832278 7.08998987,14.0379114 C7.57976203,13.7930253 8.14786329,13.6703671 8.79472405,13.6703671 C9.4183443,13.6703671 9.9752557,13.7930253 10.4658886,14.0379114 C10.9556608,14.2832278 11.3735595,14.6060127 11.7191544,15.007557 C12.064319,15.4082405 12.3320152,15.8653038 12.5213823,16.3774557 C12.710319,16.8904684 12.8054329,17.4133797 12.8054329,17.9487722 C12.8054329,18.4833038 12.710319,19.0070759 12.5213823,19.5192278 L12.5213823,19.5192278 Z M13.0016861,11.4306709 L12.9349772,11.4306709 C12.4671544,10.8741899 11.8095342,10.3616076 10.9629772,9.89335443 C10.1159899,9.42553165 9.07963544,9.19140506 7.85477468,9.19140506 C6.65143291,9.19140506 5.56515443,9.42553165 4.59550886,9.89335443 C3.62672405,10.3616076 2.80211646,10.9964177 2.12254684,11.7986456 C1.44254684,12.6008734 0.919205063,13.5313544 0.551660759,14.5896582 C0.183686076,15.647962 -8.60759494e-05,16.7566203 -8.60759494e-05,17.9147722 C-8.60759494e-05,19.0742152 0.178091139,20.188038 0.534875949,21.2575316 C0.89123038,22.3270253 1.40897722,23.2686962 2.08897722,24.0821139 C2.76854684,24.8955316 3.59831899,25.5471266 4.57915443,26.0373291 C5.55912911,26.5266709 6.67338228,26.7724177 7.92148354,26.7724177 C9.03530633,26.7724177 10.0884456,26.5434557 11.0800405,26.0872532 C12.0712051,25.6306203 12.8346987,24.9790253 13.3696608,24.132038 L13.4363696,24.132038 L13.4363696,26.3045949 L18.0530532,26.3045949 L18.0530532,1.03613924 L13.0016861,1.03613924 L13.0016861,11.4306709 Z" id="Fill-7"></path>
            </g>
        </g>
    </g>
</svg>