<?xml version="1.0" encoding="UTF-8" standalone="no"?>
<svg width="20px" height="20px" viewBox="0 0 20 20" version="1.1" xmlns="http://www.w3.org/2000/svg" xmlns:xlink="http://www.w3.org/1999/xlink">
    <!-- Generator: Sketch 3.8.3 (29802) - http://www.bohemiancoding.com/sketch -->
    <title>Fill 59</title>
    <desc>Created with Sketch.</desc>
    <defs></defs>
    <g id="Page-1" stroke="none" stroke-width="1" fill="none" fill-rule="evenodd">
        <g id="Desktop-HD" transform="translate(-1301.000000, -28.000000)" fill="#FFFFFF">
            <g id="button-save-copy" transform="translate(1285.000000, 18.000000)">
                <path d="M31.5555556,10 L18.2222222,10 C16.9888889,10 16,11 16,12.2222222 L16,27.7777778 C16,29 16.9888889,30 18.2222222,30 L33.7777778,30 C35,30 36,29 36,27.7777778 L36,14.4444444 L31.5555556,10 L31.5555556,10 Z M26,27.7777778 C24.1555556,27.7777778 22.6666667,26.2888889 22.6666667,24.4444444 C22.6666667,22.6 24.1555556,21.1111111 26,21.1111111 C27.8444444,21.1111111 29.3333333,22.6 29.3333333,24.4444444 C29.3333333,26.2888889 27.8444444,27.7777778 26,27.7777778 L26,27.7777778 Z M18.2222222,12.2222222 L29.3333333,12.2222222 L29.3333333,16.6666667 L18.2222222,16.6666667 L18.2222222,12.2222222 Z" id="Fill-59"></path>
            </g>
        </g>
    </g>
</svg>