<?xml version="1.0" encoding="UTF-8" standalone="no"?>
<svg width="24px" height="24px" viewBox="0 0 24 24" version="1.1" xmlns="http://www.w3.org/2000/svg" xmlns:xlink="http://www.w3.org/1999/xlink">
    <!-- Generator: Sketch 3.8.3 (29802) - http://www.bohemiancoding.com/sketch -->
    <title>icon-private</title>
    <desc>Created with Sketch.</desc>
    <defs></defs>
    <g id="Page-1" stroke="none" stroke-width="1" fill="none" fill-rule="evenodd">
        <g id="Group-12" fill="#4A4A4A">
            <path d="M5.06180153,7.27218321 L5.06180153,9.76854962 L4.89551145,9.76854962 C3.85019847,9.76854962 3,10.6185038 3,11.6641221 L3,22.1044275 C3,23.1500458 3.85019847,24 4.89551145,24 L19.4642443,24 C20.5095573,24 21.3597557,23.1500458 21.3597557,22.1044275 L21.3597557,11.6592977 C21.3597557,10.6137405 20.5095573,9.76354198 19.4642443,9.76354198 L19.4153282,9.76354198 L19.4153282,7.26717557 C19.4153282,3.3098626 16.1956031,0.0903816794 12.2385344,0.0903816794 C8.28122137,0.0951450382 5.06180153,3.31487023 5.06180153,7.27218321 L5.06180153,7.27218321 Z M13.3034504,17.3458931 C13.1569466,17.4534351 13.1178626,17.5560305 13.1178626,17.727084 C13.1228702,18.4939847 13.1228702,19.2561832 13.1228702,20.023084 C13.1374046,20.3408855 12.9761221,20.653374 12.6927634,20.7950534 C12.0236336,21.1371603 11.3542595,20.6583817 11.3542595,20.023084 L11.3542595,20.0183206 C11.3542595,19.2514198 11.3542595,18.4842137 11.3590229,17.717313 C11.3590229,17.5607939 11.3248855,17.4581985 11.1879695,17.3556641 C10.4942901,16.8427481 10.2647939,15.9682443 10.6116641,15.2012824 C10.9487023,14.4536794 11.7743511,14.0140458 12.5510229,14.1703206 C13.4158168,14.3463206 14.0166718,15.0400611 14.0265038,15.9047939 C14.0265038,16.5057099 13.7872366,16.9942595 13.3034504,17.3458931 L13.3034504,17.3458931 Z M8.20299237,7.27218321 C8.20299237,5.04433588 10.0155115,3.23664122 12.2385344,3.23664122 C14.4663817,3.23664122 16.2738321,5.04909924 16.2738321,7.27218321 L16.2738321,9.76854962 L8.20299237,9.76854962 L8.20299237,7.27218321 Z" id="padlock"></path>
        </g>
    </g>
</svg>