<?xml version="1.0" encoding="UTF-8" standalone="no"?>
<svg width="24px" height="20px" viewBox="0 0 24 20" version="1.1" xmlns="http://www.w3.org/2000/svg" xmlns:xlink="http://www.w3.org/1999/xlink">
    <!-- Generator: Sketch 3.8.3 (29802) - http://www.bohemiancoding.com/sketch -->
    <title>Fill 109</title>
    <desc>Created with Sketch.</desc>
    <defs></defs>
    <g id="Page-1" stroke="none" stroke-width="1" fill="none" fill-rule="evenodd">
        <g id="Desktop-HD" transform="translate(-659.000000, -28.000000)" fill="#FFFFFF">
            <g id="button-save-copy-2" transform="translate(646.000000, 18.000000)">
                <path d="M15,14 L13,14 L13,19 L13.01,19 L13,27.9995 C13,29.0995 13.9,30 15,30 L33,30 L33,27.9995 L15,27.9995 L15,14 L15,14 Z M35,12 L27,12 L25,10 L19,10 C17.9,10 17.01,10.9 17.01,12 L17,24 C17,25.1 17.9,25.9995 19,25.9995 L35,25.9995 C36.1,25.9995 37,25.1 37,24 L37,14 C37,12.9 36.1,12 35,12 L35,12 Z M20,23 L24.5,17 L28,21.51 L30.5,18.5 L34,23 L20,23 L20,23 Z" id="Fill-109"></path>
            </g>
        </g>
    </g>
</svg>