<?xml version="1.0" encoding="UTF-8" standalone="no"?>
<svg width="30px" height="19px" viewBox="0 0 30 19" version="1.1" xmlns="http://www.w3.org/2000/svg" xmlns:xlink="http://www.w3.org/1999/xlink">
    <!-- Generator: Sketch 3.8.3 (29802) - http://www.bohemiancoding.com/sketch -->
    <title>google-plus</title>
    <desc>Created with Sketch.</desc>
    <defs></defs>
    <g id="Page-1" stroke="none" stroke-width="1" fill="none" fill-rule="evenodd">
        <g id="Desktop-HD-Copy-2" transform="translate(-989.000000, -511.000000)">
            <g id="google-plus" transform="translate(989.000000, 511.000000)">
                <g id="Capa_1">
                    <g id="Group">
                        <g transform="translate(0.740741, 0.701754)" id="Shape">
                            <path d="M0.207017544,9.20389864 C0.129434698,12.9668616 2.72124756,16.5578947 6.28654971,17.7290448 C9.64483431,18.8573099 13.7738791,18.0132554 16.008577,15.137232 C17.6401559,13.1220273 18.0109162,10.4354776 17.834308,7.92553606 C14.9582846,7.89980507 12.0822612,7.90838207 9.21052632,7.91267057 C9.20584795,8.93723197 9.21052632,9.95789474 9.21481481,10.9824561 C10.9368421,11.0300195 12.6592593,11.0081871 14.3812865,11.042885 C13.9465887,12.5325536 12.9563353,13.9189084 11.4534113,14.4569201 C8.55165692,15.7356725 4.84912281,14.0651072 3.93606238,11.0210526 C2.83391813,8.10604288 4.63820663,4.58830409 7.617154,3.74035088 C9.46432749,3.09044834 11.3672515,3.82222222 12.9477583,4.78245614 C13.748538,4.0331384 14.4978558,3.23235867 15.2339181,2.42300195 C13.4382066,0.920467836 11.1306043,-0.000779727096 8.7582846,0.201559454 C4.1037037,0.256920078 0.0304093567,4.5539961 0.207017544,9.20389864 L0.207017544,9.20389864 Z" fill="#DC4E41"></path>
                            <path d="M23.4315789,5.32865497 C23.4230019,6.18557505 23.4140351,7.04678363 23.4097466,7.90331384 C22.548538,7.91189084 21.6920078,7.91617934 20.8350877,7.92046784 L20.8350877,10.4865497 C21.6920078,10.4908382 22.5532164,10.4951267 23.4097466,10.5040936 C23.4183236,11.3610136 23.4183236,12.2175439 23.4269006,13.0787524 C24.2795322,13.0787524 25.1364522,13.0744639 25.9929825,13.0787524 C25.9976608,12.2175439 26.0015595,11.3610136 26.0105263,10.4998051 C26.8670565,10.4955166 27.7282651,10.4912281 28.5851852,10.4869396 L28.5851852,7.9208577 C27.728655,7.9165692 26.8674464,7.9122807 26.0105263,7.9037037 C26.005848,7.04678363 25.9976608,6.18557505 25.9929825,5.32904483 C25.1364522,5.32865497 24.2838207,5.32865497 23.4315789,5.32865497 L23.4315789,5.32865497 Z" fill="#DC4E41"></path>
                            <g fill="#FFFFFF">
                                <path d="M0.207017544,9.20389864 C0.0304093567,4.5539961 4.10331384,0.256920078 8.75789474,0.201169591 C11.1302144,-0.00116959064 13.4382066,0.920077973 15.2335283,2.42261209 C14.497076,3.23235867 13.7477583,4.03274854 12.9473684,4.78206628 C11.3668616,3.82183236 9.46393762,3.09005848 7.61676413,3.73996101 C4.6374269,4.58830409 2.8331384,8.10604288 3.93567251,11.0206628 C4.84873294,14.0647173 8.55126706,15.7352827 11.4530214,14.4565302 C12.9555556,13.9185185 13.9461988,12.5321637 14.3808967,11.0424951 C12.6588694,11.0081871 10.9364522,11.0296296 9.21442495,10.9820663 C9.21013645,9.95750487 9.20584795,8.93684211 9.21013645,7.9122807 C12.0818713,7.9079922 14.9578947,7.8994152 17.8339181,7.9251462 C18.0105263,10.4354776 17.6401559,13.1220273 16.0081871,15.1368421 C13.7734893,18.0128655 9.64483431,18.8569201 6.28615984,17.728655 C2.72163743,16.5578947 0.129434698,12.9668616 0.207017544,9.20389864 L0.207017544,9.20389864 Z"></path>
                                <path d="M23.4315789,5.32865497 L25.9929825,5.32865497 C25.9976608,6.18557505 26.005848,7.04678363 26.0105263,7.90331384 C26.8670565,7.91189084 27.7282651,7.91617934 28.5851852,7.92046784 L28.5851852,10.4865497 C27.728655,10.4908382 26.8674464,10.4951267 26.0105263,10.4994152 C26.0019493,11.3606238 25.9976608,12.217154 25.9929825,13.0783626 C25.1364522,13.0740741 24.2791423,13.0783626 23.4269006,13.0783626 C23.4187135,12.217154 23.4187135,11.3606238 23.4097466,10.5037037 C22.5532164,10.4947368 21.6920078,10.4908382 20.8350877,10.4861598 L20.8350877,7.92007797 C21.6920078,7.91578947 22.5489279,7.91150097 23.4097466,7.90292398 C23.4140351,7.04678363 23.4226121,6.18557505 23.4315789,5.32865497 L23.4315789,5.32865497 Z"></path>
                            </g>
                        </g>
                    </g>
                </g>
            </g>
        </g>
    </g>
</svg>