<?xml version="1.0" encoding="UTF-8" standalone="no"?>
<svg width="24px" height="24px" viewBox="0 0 24 24" version="1.1" xmlns="http://www.w3.org/2000/svg" xmlns:xlink="http://www.w3.org/1999/xlink">
    <!-- Generator: Sketch 3.8.3 (29802) - http://www.bohemiancoding.com/sketch -->
    <title>icon-public</title>
    <desc>Created with Sketch.</desc>
    <defs></defs>
    <g id="Page-1" stroke="none" stroke-width="1" fill="none" fill-rule="evenodd">
        <g id="dark-eye" fill="#4990E2">
            <path d="M12,5 C4.12736842,5 0,10.8001053 0,11.7203158 C0,12.6392632 4.12736842,18.4396842 12,18.4396842 C19.8726316,18.4396842 24,12.6392632 24,11.7203158 C24,10.8001053 19.8726316,5 12,5 L12,5 Z M12,16.8888421 C9.05431579,16.8888421 6.666,14.5747368 6.666,11.7203158 C6.666,8.86463158 9.05431579,6.55052632 12,6.55052632 C14.9456842,6.55052632 17.334,8.86463158 17.334,11.7203158 C17.334,14.5747368 14.9456842,16.8888421 12,16.8888421 L12,16.8888421 Z M14.6668421,11.7203158 C14.6668421,13.1476842 13.4728421,14.3047368 12,14.3047368 C10.5271579,14.3047368 9.33315789,13.1476842 9.33315789,11.7203158 C9.33315789,10.2932632 10.5271579,9.13494737 12,9.13494737 C12.7957895,9.13494737 11.5114737,11.1837895 12,11.7203158 C12.4143158,12.1756842 14.6668421,11.0641053 14.6668421,11.7203158 L14.6668421,11.7203158 Z" id="Fill-1"></path>
        </g>
    </g>
</svg>