<?xml version="1.0" encoding="UTF-8" standalone="no"?>
<svg width="101px" height="34px" viewBox="0 0 101 34" version="1.1" xmlns="http://www.w3.org/2000/svg" xmlns:xlink="http://www.w3.org/1999/xlink">
    <!-- Generator: Sketch 3.8.3 (29802) - http://www.bohemiancoding.com/sketch -->
    <title>Group</title>
    <desc>Created with Sketch.</desc>
    <defs></defs>
    <g id="Page-1" stroke="none" stroke-width="1" fill="none" fill-rule="evenodd">
        <g id="Group" fill="#FFFFFF">
            <path d="M0.8,22.48 C0.8,20.9599924 1.0466642,19.5266734 1.54,18.18 C2.0333358,16.8333266 2.746662,15.660005 3.68,14.66 C4.613338,13.659995 5.74666,12.8666696 7.08,12.28 C8.41334,11.6933304 9.9333248,11.4 11.64,11.4 C12.7600056,11.4 13.786662,11.499999 14.72,11.7 C15.653338,11.900001 16.5599956,12.1866648 17.44,12.56 L16.2,17.32 C15.6399972,17.1066656 15.02667,16.9200008 14.36,16.76 C13.69333,16.5999992 12.9466708,16.52 12.12,16.52 C10.3599912,16.52 9.046671,17.0666612 8.18,18.16 C7.313329,19.2533388 6.88,20.6933244 6.88,22.48 C6.88,24.3733428 7.2866626,25.8399948 8.1,26.88 C8.9133374,27.9200052 10.3333232,28.44 12.36,28.44 C13.0800036,28.44 13.8533292,28.373334 14.68,28.24 C15.5066708,28.106666 16.2666632,27.8933348 16.96,27.6 L17.8,32.48 C17.1066632,32.7733348 16.2400052,33.0266656 15.2,33.24 C14.1599948,33.4533344 13.0133396,33.56 11.76,33.56 C9.8399904,33.56 8.1866736,33.2733362 6.8,32.7 C5.4133264,32.1266638 4.2733378,31.3466716 3.38,30.36 C2.4866622,29.3733284 1.8333354,28.2066734 1.42,26.86 C1.0066646,25.5133266 0.8,24.0533412 0.8,22.48 L0.8,22.48 Z M29.84,28.84 C30.4266696,28.84 30.986664,28.8266668 31.52,28.8 C32.053336,28.7733332 32.4799984,28.7333336 32.8,28.68 L32.8,24.16 C32.5599988,24.1066664 32.2000024,24.0533336 31.72,24 C31.2399976,23.9466664 30.800002,23.92 30.4,23.92 C29.8399972,23.92 29.3133358,23.953333 28.82,24.02 C28.3266642,24.086667 27.8933352,24.2133324 27.52,24.4 C27.1466648,24.5866676 26.8533344,24.8399984 26.64,25.16 C26.4266656,25.4800016 26.32,25.8799976 26.32,26.36 C26.32,27.293338 26.6333302,27.9399982 27.26,28.3 C27.8866698,28.6600018 28.7466612,28.84 29.84,28.84 L29.84,28.84 Z M29.36,11.4 C31.1200088,11.4 32.5866608,11.599998 33.76,12 C34.9333392,12.400002 35.8733298,12.9733296 36.58,13.72 C37.2866702,14.4666704 37.7866652,15.373328 38.08,16.44 C38.3733348,17.506672 38.52,18.6933268 38.52,20 L38.52,32.4 C37.6666624,32.5866676 36.4800076,32.8066654 34.96,33.06 C33.4399924,33.3133346 31.6000108,33.44 29.44,33.44 C28.0799932,33.44 26.8466722,33.3200012 25.74,33.08 C24.6333278,32.8399988 23.680004,32.4466694 22.88,31.9 C22.079996,31.3533306 21.4666688,30.6400044 21.04,29.76 C20.6133312,28.8799956 20.4,27.8000064 20.4,26.52 C20.4,25.2933272 20.6466642,24.2533376 21.14,23.4 C21.6333358,22.5466624 22.2933292,21.8666692 23.12,21.36 C23.9466708,20.8533308 24.893328,20.4866678 25.96,20.26 C27.026672,20.0333322 28.1333276,19.92 29.28,19.92 C30.0533372,19.92 30.739997,19.953333 31.34,20.02 C31.940003,20.086667 32.4266648,20.1733328 32.8,20.28 L32.8,19.72 C32.8,18.7066616 32.4933364,17.8933364 31.88,17.28 C31.2666636,16.6666636 30.2000076,16.36 28.68,16.36 C27.6666616,16.36 26.6666716,16.4333326 25.68,16.58 C24.6933284,16.7266674 23.8400036,16.933332 23.12,17.2 L22.36,12.4 C22.7066684,12.2933328 23.1399974,12.1800006 23.66,12.06 C24.1800026,11.9399994 24.7466636,11.8333338 25.36,11.74 C25.9733364,11.6466662 26.6199966,11.566667 27.3,11.5 C27.9800034,11.433333 28.6666632,11.4 29.36,11.4 L29.36,11.4 Z" id="ca"></path>
            <path d="M43.44,12.04 C44.2133372,11.8266656 45.2533268,11.586668 46.56,11.32 C47.8666732,11.053332 49.4666572,10.92 51.36,10.92 C52.9333412,10.92 54.2466614,11.1466644 55.3,11.6 C56.3533386,12.0533356 57.1933302,12.6999958 57.82,13.54 C58.4466698,14.3800042 58.893332,15.3866608 59.16,16.56 C59.426668,17.7333392 59.56,19.0266596 59.56,20.44 L59.56,32 L56.96,32 L56.96,21.28 C56.96,19.813326 56.860001,18.5733384 56.66,17.56 C56.459999,16.5466616 56.126669,15.7200032 55.66,15.08 C55.193331,14.4399968 54.5800038,13.9800014 53.82,13.7 C53.0599962,13.4199986 52.1066724,13.28 50.96,13.28 C49.7333272,13.28 48.6733378,13.346666 47.78,13.48 C46.8866622,13.613334 46.306668,13.7333328 46.04,13.84 L46.04,32 L43.44,32 L43.44,12.04 Z M71.72,30.12 C72.7333384,30.12 73.6199962,30.086667 74.38,30.02 C75.1400038,29.953333 75.786664,29.8666672 76.32,29.76 L76.32,22.48 C76.0266652,22.346666 75.5600032,22.2066674 74.92,22.06 C74.2799968,21.9133326 73.4000056,21.84 72.28,21.84 C71.6399968,21.84 70.9733368,21.8866662 70.28,21.98 C69.5866632,22.0733338 68.9466696,22.2733318 68.36,22.58 C67.7733304,22.8866682 67.2933352,23.306664 66.92,23.84 C66.5466648,24.373336 66.36,25.0799956 66.36,25.96 C66.36,26.7333372 66.4866654,27.386664 66.74,27.92 C66.9933346,28.453336 67.353331,28.8799984 67.82,29.2 C68.286669,29.5200016 68.8466634,29.7533326 69.5,29.9 C70.1533366,30.0466674 70.8933292,30.12 71.72,30.12 L71.72,30.12 Z M71.48,10.84 C72.8400068,10.84 73.9933286,11.0333314 74.94,11.42 C75.8866714,11.8066686 76.6533304,12.3399966 77.24,13.02 C77.8266696,13.7000034 78.253332,14.506662 78.52,15.44 C78.786668,16.373338 78.92,17.3866612 78.92,18.48 L78.92,31.52 C78.653332,31.6000004 78.2666692,31.6866662 77.76,31.78 C77.2533308,31.8733338 76.66667,31.9733328 76,32.08 C75.33333,32.1866672 74.5933374,32.273333 73.78,32.34 C72.9666626,32.406667 72.1333376,32.44 71.28,32.44 C70.1866612,32.44 69.1800046,32.3200012 68.26,32.08 C67.3399954,31.8399988 66.5400034,31.4600026 65.86,30.94 C65.1799966,30.4199974 64.6466686,29.7533374 64.26,28.94 C63.8733314,28.1266626 63.68,27.1333392 63.68,25.96 C63.68,24.8399944 63.8933312,23.880004 64.32,23.08 C64.7466688,22.279996 65.3466628,21.6200026 66.12,21.1 C66.8933372,20.5799974 67.813328,20.2000012 68.88,19.96 C69.946672,19.7199988 71.1066604,19.6 72.36,19.6 C72.7333352,19.6 73.1266646,19.6199998 73.54,19.66 C73.9533354,19.7000002 74.3533314,19.753333 74.74,19.82 C75.1266686,19.886667 75.4599986,19.953333 75.74,20.02 C76.0200014,20.086667 76.2133328,20.1466664 76.32,20.2 L76.32,18.92 C76.32,18.1999964 76.2666672,17.5000034 76.16,16.82 C76.0533328,16.1399966 75.8200018,15.5266694 75.46,14.98 C75.0999982,14.4333306 74.5933366,13.993335 73.94,13.66 C73.2866634,13.326665 72.426672,13.16 71.36,13.16 C69.8399924,13.16 68.7066704,13.2666656 67.96,13.48 C67.2133296,13.6933344 66.6666684,13.866666 66.32,14 L65.96,11.72 C66.4133356,11.5066656 67.1133286,11.3066676 68.06,11.12 C69.0066714,10.9333324 70.14666,10.84 71.48,10.84 L71.48,10.84 Z M101,31.36 C100.226663,31.626668 99.240006,31.8799988 98.04,32.12 C96.839994,32.3600012 95.3200092,32.48 93.48,32.48 C91.9599924,32.48 90.5800062,32.2333358 89.34,31.74 C88.0999938,31.2466642 87.0333378,30.533338 86.14,29.6 C85.2466622,28.666662 84.5533358,27.53334 84.06,26.2 C83.5666642,24.86666 83.32,23.3600084 83.32,21.68 C83.32,20.1066588 83.5266646,18.6600066 83.94,17.34 C84.3533354,16.0199934 84.959996,14.8800048 85.76,13.92 C86.560004,12.9599952 87.5399942,12.213336 88.7,11.68 C89.8600058,11.146664 91.1866592,10.88 92.68,10.88 C94.0400068,10.88 95.219995,11.0733314 96.22,11.46 C97.220005,11.8466686 97.9466644,12.2133316 98.4,12.56 L98.4,1.44 L101,0.96 L101,31.36 Z M98.4,15.08 C98.1599988,14.8933324 97.8600018,14.6933344 97.5,14.48 C97.1399982,14.2666656 96.7200024,14.0666676 96.24,13.88 C95.7599976,13.6933324 95.2400028,13.5400006 94.68,13.42 C94.1199972,13.2999994 93.5333364,13.24 92.92,13.24 C91.6399936,13.24 90.566671,13.4666644 89.7,13.92 C88.833329,14.3733356 88.133336,14.9799962 87.6,15.74 C87.066664,16.5000038 86.6800012,17.3933282 86.44,18.42 C86.1999988,19.4466718 86.08,20.5333276 86.08,21.68 C86.08,24.4000136 86.7599932,26.4866594 88.12,27.94 C89.4800068,29.3933406 91.2799888,30.12 93.52,30.12 C94.8000064,30.12 95.8333294,30.0600006 96.62,29.94 C97.4066706,29.8199994 97.999998,29.693334 98.4,29.56 L98.4,15.08 Z" id="nad"></path>
        </g>
    </g>
</svg>