<?xml version="1.0" encoding="UTF-8" standalone="no"?>
<svg width="161px" height="39px" viewBox="0 0 161 39" version="1.1" xmlns="http://www.w3.org/2000/svg" xmlns:xlink="http://www.w3.org/1999/xlink">
    <!-- Generator: Sketch 3.8.3 (29802) - http://www.bohemiancoding.com/sketch -->
    <title>Posterbay</title>
    <desc>Created with Sketch.</desc>
    <defs></defs>
    <g id="Page-1" stroke="none" stroke-width="1" fill="none" fill-rule="evenodd">
        <path d="M8.52,2.96 C12.653354,2.96 15.8266556,3.6866594 18.04,5.14 C20.2533444,6.5933406 21.36,8.9733168 21.36,12.28 C21.36,15.61335 20.2400112,18.0199926 18,19.5 C15.7599888,20.9800074 12.5600208,21.72 8.4,21.72 L6.44,21.72 L6.44,31 L0.2,31 L0.2,3.68 C1.5600068,3.413332 2.9999924,3.2266672 4.52,3.12 C6.0400076,3.0133328 7.3733276,2.96 8.52,2.96 L8.52,2.96 Z M8.92,8.28 C8.4666644,8.28 8.0200022,8.2933332 7.58,8.32 C7.1399978,8.3466668 6.7600016,8.3733332 6.44,8.4 L6.44,16.4 L8.4,16.4 C10.5600108,16.4 12.1866612,16.1066696 13.28,15.52 C14.3733388,14.9333304 14.92,13.840008 14.92,12.24 C14.92,11.4666628 14.7800014,10.8266692 14.5,10.32 C14.2199986,9.8133308 13.8200026,9.4066682 13.3,9.1 C12.7799974,8.7933318 12.1466704,8.5800006 11.4,8.46 C10.6533296,8.3399994 9.8266712,8.28 8.92,8.28 L8.92,8.28 Z M41.64,20.44 C41.64,22.0933416 41.4000024,23.6066598 40.92,24.98 C40.4399976,26.3533402 39.7466712,27.5266618 38.84,28.5 C37.9333288,29.4733382 36.846673,30.226664 35.58,30.76 C34.313327,31.293336 32.8933412,31.56 31.32,31.56 C29.7733256,31.56 28.366673,31.293336 27.1,30.76 C25.833327,30.226664 24.7466712,29.4733382 23.84,28.5 C22.9333288,27.5266618 22.2266692,26.3533402 21.72,24.98 C21.2133308,23.6066598 20.96,22.0933416 20.96,20.44 C20.96,18.7866584 21.2199974,17.2800068 21.74,15.92 C22.2600026,14.5599932 22.9799954,13.4000048 23.9,12.44 C24.8200046,11.4799952 25.913327,10.733336 27.18,10.2 C28.446673,9.666664 29.8266592,9.4 31.32,9.4 C32.8400076,9.4 34.233327,9.666664 35.5,10.2 C36.766673,10.733336 37.8533288,11.4799952 38.76,12.44 C39.6666712,13.4000048 40.3733308,14.5599932 40.88,15.92 C41.3866692,17.2800068 41.64,18.7866584 41.64,20.44 L41.64,20.44 Z M35.56,20.44 C35.56,18.5999908 35.193337,17.1533386 34.46,16.1 C33.726663,15.0466614 32.6800068,14.52 31.32,14.52 C29.9599932,14.52 28.9066704,15.0466614 28.16,16.1 C27.4133296,17.1533386 27.04,18.5999908 27.04,20.44 C27.04,22.2800092 27.4133296,23.7399946 28.16,24.82 C28.9066704,25.9000054 29.9599932,26.44 31.32,26.44 C32.6800068,26.44 33.726663,25.9000054 34.46,24.82 C35.193337,23.7399946 35.56,22.2800092 35.56,20.44 L35.56,20.44 Z M49.28,26.72 C50.3733388,26.72 51.1466644,26.6133344 51.6,26.4 C52.0533356,26.1866656 52.28,25.7733364 52.28,25.16 C52.28,24.6799976 51.9866696,24.2600018 51.4,23.9 C50.8133304,23.5399982 49.920006,23.1333356 48.72,22.68 C47.786662,22.3333316 46.9400038,21.9733352 46.18,21.6 C45.4199962,21.2266648 44.773336,20.7800026 44.24,20.26 C43.706664,19.7399974 43.2933348,19.1200036 43,18.4 C42.7066652,17.6799964 42.56,16.8133384 42.56,15.8 C42.56,13.8266568 43.293326,12.2666724 44.76,11.12 C46.226674,9.9733276 48.2399872,9.4 50.8,9.4 C52.0800064,9.4 53.3066608,9.5133322 54.48,9.74 C55.6533392,9.9666678 56.5866632,10.213332 57.28,10.48 L56.24,15.12 C55.5466632,14.8799988 54.7933374,14.6666676 53.98,14.48 C53.1666626,14.2933324 52.2533384,14.2 51.24,14.2 C49.373324,14.2 48.44,14.7199948 48.44,15.76 C48.44,16.0000012 48.4799996,16.2133324 48.56,16.4 C48.6400004,16.5866676 48.7999988,16.7666658 49.04,16.94 C49.2800012,17.1133342 49.6066646,17.299999 50.02,17.5 C50.4333354,17.700001 50.9599968,17.9199988 51.6,18.16 C52.9066732,18.6400024 53.9866624,19.113331 54.84,19.58 C55.6933376,20.046669 56.3666642,20.5533306 56.86,21.1 C57.3533358,21.6466694 57.699999,22.25333 57.9,22.92 C58.100001,23.58667 58.2,24.3599956 58.2,25.24 C58.2,27.3200104 57.4200078,28.893328 55.86,29.96 C54.2999922,31.026672 52.0933476,31.56 49.24,31.56 C47.373324,31.56 45.8200062,31.4000016 44.58,31.08 C43.3399938,30.7599984 42.4800024,30.4933344 42,30.28 L43,25.44 C44.0133384,25.840002 45.053328,26.1533322 46.12,26.38 C47.186672,26.6066678 48.2399948,26.72 49.28,26.72 L49.28,26.72 Z M59.44,4.72 L65.4,3.76 L65.4,9.96 L72.56,9.96 L72.56,14.92 L65.4,14.92 L65.4,22.32 C65.4,23.5733396 65.6199978,24.5733296 66.06,25.32 C66.5000022,26.0666704 67.38666,26.44 68.72,26.44 C69.3600032,26.44 70.0199966,26.3800006 70.7,26.26 C71.3800034,26.1399994 71.9999972,25.9733344 72.56,25.76 L73.4,30.4 C72.6799964,30.6933348 71.8800044,30.9466656 71,31.16 C70.1199956,31.3733344 69.0400064,31.48 67.76,31.48 C66.1333252,31.48 64.786672,31.2600022 63.72,30.82 C62.653328,30.3799978 61.8000032,29.7666706 61.16,28.98 C60.5199968,28.1933294 60.0733346,27.2400056 59.82,26.12 C59.5666654,24.9999944 59.44,23.7600068 59.44,22.4 L59.44,4.72 Z M72.6,20.64 C72.6,18.773324 72.8866638,17.140007 73.46,15.74 C74.0333362,14.339993 74.786662,13.173338 75.72,12.24 C76.653338,11.306662 77.7266606,10.6000024 78.94,10.12 C80.1533394,9.6399976 81.3999936,9.4 82.68,9.4 C85.6666816,9.4 88.026658,10.3133242 89.76,12.14 C91.493342,13.9666758 92.36,16.6533156 92.36,20.2 C92.36,20.5466684 92.3466668,20.9266646 92.32,21.34 C92.2933332,21.7533354 92.2666668,22.1199984 92.24,22.44 L78.72,22.44 C78.853334,23.6666728 79.4266616,24.6399964 80.44,25.36 C81.4533384,26.0800036 82.8133248,26.44 84.52,26.44 C85.6133388,26.44 86.6866614,26.340001 87.74,26.14 C88.7933386,25.939999 89.65333,25.6933348 90.32,25.4 L91.12,30.24 C90.7999984,30.4000008 90.373336,30.5599992 89.84,30.72 C89.306664,30.8800008 88.7133366,31.0199994 88.06,31.14 C87.4066634,31.2600006 86.7066704,31.3599996 85.96,31.44 C85.2133296,31.5200004 84.4666704,31.56 83.72,31.56 C81.8266572,31.56 80.180007,31.2800028 78.78,30.72 C77.379993,30.1599972 76.2200046,29.3933382 75.3,28.42 C74.3799954,27.4466618 73.7000022,26.29334 73.26,24.96 C72.8199978,23.62666 72.6,22.1866744 72.6,20.64 L72.6,20.64 Z M86.6,18.36 C86.5733332,17.8533308 86.4866674,17.3600024 86.34,16.88 C86.1933326,16.3999976 85.9666682,15.9733352 85.66,15.6 C85.3533318,15.2266648 84.966669,14.9200012 84.5,14.68 C84.033331,14.4399988 83.4533368,14.32 82.76,14.32 C82.09333,14.32 81.5200024,14.4333322 81.04,14.66 C80.5599976,14.8866678 80.1600016,15.1866648 79.84,15.56 C79.5199984,15.9333352 79.2733342,16.3666642 79.1,16.86 C78.9266658,17.3533358 78.8000004,17.8533308 78.72,18.36 L86.6,18.36 Z M106.64,15.24 C106.106664,15.106666 105.480004,14.9666674 104.76,14.82 C104.039996,14.6733326 103.266671,14.6 102.44,14.6 C102.066665,14.6 101.620003,14.633333 101.1,14.7 C100.579997,14.766667 100.186668,14.8399996 99.92,14.92 L99.92,31 L93.96,31 L93.96,11.08 C95.026672,10.7066648 96.2866594,10.353335 97.74,10.02 C99.1933406,9.686665 100.813324,9.52 102.6,9.52 C102.920002,9.52 103.306664,9.5399998 103.76,9.58 C104.213336,9.6200002 104.666664,9.673333 105.12,9.74 C105.573336,9.806667 106.026664,9.8866662 106.48,9.98 C106.933336,10.0733338 107.319998,10.186666 107.64,10.32 L106.64,15.24 Z M111.08,11.56 C111.533336,11.2133316 112.259995,10.8466686 113.26,10.46 C114.260005,10.0733314 115.439993,9.88 116.8,9.88 C118.293341,9.88 119.619994,10.146664 120.78,10.68 C121.940006,11.213336 122.919996,11.9599952 123.72,12.92 C124.520004,13.8800048 125.126665,15.0199934 125.54,16.34 C125.953335,17.6600066 126.16,19.1066588 126.16,20.68 C126.16,22.3600084 125.913336,23.86666 125.42,25.2 C124.926664,26.53334 124.233338,27.666662 123.34,28.6 C122.446662,29.533338 121.380006,30.2466642 120.14,30.74 C118.899994,31.2333358 117.520008,31.48 116,31.48 C114.159991,31.48 112.640006,31.3600012 111.44,31.12 C110.239994,30.8799988 109.253337,30.626668 108.48,30.36 L108.48,0.44 L111.08,-0.04 L111.08,11.56 Z M111.08,28.56 C111.480002,28.693334 112.073329,28.8199994 112.86,28.94 C113.646671,29.0600006 114.679994,29.12 115.96,29.12 C118.200011,29.12 119.999993,28.3933406 121.36,26.94 C122.720007,25.4866594 123.4,23.4000136 123.4,20.68 C123.4,19.5333276 123.280001,18.4466718 123.04,17.42 C122.799999,16.3933282 122.413336,15.5000038 121.88,14.74 C121.346664,13.9799962 120.646671,13.3733356 119.78,12.92 C118.913329,12.4666644 117.840006,12.24 116.56,12.24 C115.946664,12.24 115.360003,12.2999994 114.8,12.42 C114.239997,12.5400006 113.720002,12.6933324 113.24,12.88 C112.759998,13.0666676 112.340002,13.2666656 111.98,13.48 C111.619998,13.6933344 111.320001,13.8933324 111.08,14.08 L111.08,28.56 Z M135.32,29.12 C136.333338,29.12 137.219996,29.086667 137.98,29.02 C138.740004,28.953333 139.386664,28.8666672 139.92,28.76 L139.92,21.48 C139.626665,21.346666 139.160003,21.2066674 138.52,21.06 C137.879997,20.9133326 137.000006,20.84 135.88,20.84 C135.239997,20.84 134.573337,20.8866662 133.88,20.98 C133.186663,21.0733338 132.54667,21.2733318 131.96,21.58 C131.37333,21.8866682 130.893335,22.306664 130.52,22.84 C130.146665,23.373336 129.96,24.0799956 129.96,24.96 C129.96,25.7333372 130.086665,26.386664 130.34,26.92 C130.593335,27.453336 130.953331,27.8799984 131.42,28.2 C131.886669,28.5200016 132.446663,28.7533326 133.1,28.9 C133.753337,29.0466674 134.493329,29.12 135.32,29.12 L135.32,29.12 Z M135.08,9.84 C136.440007,9.84 137.593329,10.0333314 138.54,10.42 C139.486671,10.8066686 140.25333,11.3399966 140.84,12.02 C141.42667,12.7000034 141.853332,13.506662 142.12,14.44 C142.386668,15.373338 142.52,16.3866612 142.52,17.48 L142.52,30.52 C142.253332,30.6000004 141.866669,30.6866662 141.36,30.78 C140.853331,30.8733338 140.26667,30.9733328 139.6,31.08 C138.93333,31.1866672 138.193337,31.273333 137.38,31.34 C136.566663,31.406667 135.733338,31.44 134.88,31.44 C133.786661,31.44 132.780005,31.3200012 131.86,31.08 C130.939995,30.8399988 130.140003,30.4600026 129.46,29.94 C128.779997,29.4199974 128.246669,28.7533374 127.86,27.94 C127.473331,27.1266626 127.28,26.1333392 127.28,24.96 C127.28,23.8399944 127.493331,22.880004 127.92,22.08 C128.346669,21.279996 128.946663,20.6200026 129.72,20.1 C130.493337,19.5799974 131.413328,19.2000012 132.48,18.96 C133.546672,18.7199988 134.70666,18.6 135.96,18.6 C136.333335,18.6 136.726665,18.6199998 137.14,18.66 C137.553335,18.7000002 137.953331,18.753333 138.34,18.82 C138.726669,18.886667 139.059999,18.953333 139.34,19.02 C139.620001,19.086667 139.813333,19.1466664 139.92,19.2 L139.92,17.92 C139.92,17.1999964 139.866667,16.5000034 139.76,15.82 C139.653333,15.1399966 139.420002,14.5266694 139.06,13.98 C138.699998,13.4333306 138.193337,12.993335 137.54,12.66 C136.886663,12.326665 136.026672,12.16 134.96,12.16 C133.439992,12.16 132.30667,12.2666656 131.56,12.48 C130.81333,12.6933344 130.266668,12.866666 129.92,13 L129.56,10.72 C130.013336,10.5066656 130.713329,10.3066676 131.66,10.12 C132.606671,9.9333324 133.74666,9.84 135.08,9.84 L135.08,9.84 Z M151.8,31.44 C150.919996,29.8133252 150.073337,28.1200088 149.26,26.36 C148.446663,24.5999912 147.68667,22.820009 146.98,21.02 C146.27333,19.219991 145.62667,17.420009 145.04,15.62 C144.45333,13.819991 143.946669,12.053342 143.52,10.32 L146.28,10.32 C146.573335,11.6000064 146.946664,12.9799926 147.4,14.46 C147.853336,15.9400074 148.366664,17.4666588 148.94,19.04 C149.513336,20.6133412 150.146663,22.2266584 150.84,23.88 C151.533337,25.5333416 152.279996,27.159992 153.08,28.76 C153.66667,27.1066584 154.186664,25.546674 154.64,24.08 C155.093336,22.613326 155.513331,21.1533406 155.9,19.7 C156.286669,18.2466594 156.659998,16.7600076 157.02,15.24 C157.380002,13.7199924 157.759998,12.0800088 158.16,10.32 L160.76,10.32 C159.906662,14.186686 158.933339,17.9466484 157.84,21.6 C156.746661,25.2533516 155.560006,28.5999848 154.28,31.64 C153.773331,32.840006 153.253336,33.873329 152.72,34.74 C152.186664,35.606671 151.593337,36.3199972 150.94,36.88 C150.286663,37.4400028 149.526671,37.853332 148.66,38.12 C147.793329,38.386668 146.773339,38.52 145.6,38.52 C144.93333,38.52 144.326669,38.4400008 143.78,38.28 C143.233331,38.1199992 142.893334,38.0000004 142.76,37.92 L143.28,35.76 C143.386667,35.8400004 143.686664,35.9533326 144.18,36.1 C144.673336,36.2466674 145.186664,36.32 145.72,36.32 C146.46667,36.32 147.139997,36.2400008 147.74,36.08 C148.340003,35.9199992 148.879998,35.6466686 149.36,35.26 C149.840002,34.8733314 150.273331,34.3733364 150.66,33.76 C151.046669,33.1466636 151.426665,32.373338 151.8,31.44 L151.8,31.44 Z" id="Posterbay" fill="#FFFFFF"></path>
    </g>
</svg>